<svg width="636" height="288" viewBox="0 0 636 288" fill="none" xmlns="http://www.w3.org/2000/svg">
<path d="M17.2738 272C13.3628 266.056 15.6835 248.508 15.6835 240.849C15.6835 223.798 19.4552 209.012 24.5186 193.467C31.2852 172.692 39.267 155.147 52.614 140.953C71.2143 121.172 92.2121 105.505 114.283 94.1673C132.682 84.7153 151.642 80.1791 171.445 78.7711C198.032 76.8808 225.771 76.4573 251.756 83.9032C270.943 89.4012 280.498 99.9109 290.807 121.618C297.632 135.991 297.168 152.255 297.168 168.881C297.168 178.17 291.938 192.512 283.65 192.512C274.613 192.512 259.527 161.123 257.498 150.62C253.578 130.32 250.265 114.228 255.82 93.6899C261.568 72.4392 276.341 58.6459 290.807 49.0527C312.643 34.5716 340.929 30.9279 364.756 26.018C402.363 18.2685 440.216 16.3506 478.198 16.3506C508.842 16.3506 541.182 12.3956 571.584 18.0215C586.319 20.7483 606.706 26.7059 620 35.6854" stroke="#F6A801" stroke-width="30" stroke-linecap="round"/>
</svg>
