<svg width="872" height="139" viewBox="0 0 872 139" fill="none" xmlns="http://www.w3.org/2000/svg">
<path d="M862 142C862 127.942 852.315 114.001 844.077 104.495C831.603 90.1011 819.749 74.9107 806.161 61.8767C798.331 54.3654 788.973 48.8229 779.884 43.8915C769.105 38.0426 759.027 31.0528 747.609 27.0145C728.187 20.1451 707.521 14.655 687.2 14.655C669.578 14.655 653.219 17.5414 636.788 25.5654C624.574 31.5298 612.297 37.2107 599.8 42.272C593.756 44.72 588.631 49.0024 582.52 51.4777C551.591 64.0042 521.43 70.6762 488.693 65.2862C453.198 59.4418 419.276 48.0831 384.442 38.3511C332.715 23.8996 279.99 10.0522 226.636 10.0522C213.356 10.0522 200.072 9.93476 186.792 10.0522C162.865 10.2638 140.024 16.5846 116.672 21.9855C88.4197 28.5198 62.1663 42.8112 36.7698 58.5524C17.9544 70.2145 -0.223735 81.0225 -12 102.109" stroke="#F6A801" stroke-width="20" stroke-linecap="round"/>
</svg>
