<svg width="122" height="108" viewBox="0 0 122 108" fill="none" xmlns="http://www.w3.org/2000/svg">
<path d="M43.352 67.2215C43.2869 67.8082 42.7037 67.7807 42.7037 68.3741C42.7037 69.0121 42.3796 69.5096 42.3796 70.1389C42.3796 71.1652 42.0554 71.8511 42.0554 72.8942C42.0554 73.3785 41.421 75.0648 41.155 75.3974C40.616 76.0711 40.3351 77.8617 40.0925 78.7109C39.6932 80.1086 38.3424 82.64 37.3732 83.6092C35.9913 84.9912 35.0522 87.4125 34.1137 89.1018C32.5447 91.9261 30.2195 94.5352 28.1889 96.7914C26.8831 98.2423 25.8344 99.7934 23.9749 100.537C21.9331 101.354 18.7049 102.758 17.0237 104.103C16.7797 104.298 14.8421 104.499 14.5025 104.499C13.5008 104.499 12.4951 104.823 11.423 104.823C9.21835 104.823 7.49339 104.747 5.58828 103.689C3.42198 102.485 3.57659 100.044 3.17515 97.8359C2.79186 95.7278 3.15714 93.1988 3.15714 91.0467C3.15714 77.8796 21.2917 77.2265 30.8542 76.3158C32.5138 76.1577 33.9998 75.723 35.5904 75.3253C36.7101 75.0454 38.4474 75.3802 39.4622 74.9292C40.8517 74.3116 42.8245 74.677 44.3245 74.677C46.0293 74.677 47.7341 74.677 49.4389 74.677C53.7041 74.677 57.9118 75.0012 62.1529 75.0012C63.9357 75.0012 65.7186 75.0012 67.5014 75.0012C69.3622 75.0012 71.2941 74.1332 73.1741 74.0287C75.4396 73.9029 78.1705 72.8089 80.3054 72.0838C81.6014 71.6437 82.872 71.3796 84.2133 71.1114C85.48 70.858 86.5499 70.122 87.7789 69.8148C91.9053 68.7832 95.1029 65.3154 98.7821 63.4758C99.8581 62.9378 101.959 61.0482 102.672 60.0181C103.887 58.2627 105.449 57.2007 106.436 55.2279C107.324 53.4507 108.414 51.7569 109.227 50.0415C109.814 48.8028 111.368 47.8076 111.748 46.4758C112.107 45.2184 113.37 43.8832 113.999 42.73C115.057 40.7908 116.776 38.2492 116.935 36.0309C117.266 31.3888 118.231 27.0341 118.231 22.3084C118.231 18.4542 118.247 14.1949 116.683 10.6749C116.23 9.65673 116.352 8.40914 115.8 7.4154C115.19 6.31745 114.283 5.41904 113.621 4.33596C112.11 1.86275 109.093 3.28183 107.462 4.91223C104.551 7.82304 103.512 11.0431 102.6 15.033C101.933 17.9522 101.375 21.1278 101.375 24.1093C101.375 26.3487 100.727 28.3227 100.727 30.5923" stroke="#F6A801" stroke-width="6" stroke-linecap="round"/>
</svg>
