<svg width="119" height="440" viewBox="0 0 119 440" fill="none" xmlns="http://www.w3.org/2000/svg">
<path d="M92.3848 15.6561C83.8493 15.6561 76.6733 15.3703 71.35 21.2851C67.8687 25.1532 62.1875 27.0722 59.055 30.9878C56.7583 33.8586 50.0959 38.6154 46.76 39.9498C39.2129 42.9686 33.9785 55.3977 28.3916 60.9846C22.1628 67.2134 18.0877 79.3266 16.467 88.2409C15.5748 93.1477 16.3929 98.9198 16.3929 103.943C16.3929 109.871 14.4578 119.626 17.1336 124.978C20.1613 131.033 21.176 137.803 24.392 144.235C27.4409 150.333 32.3818 156.236 34.9835 162.307C39.2695 172.308 51.3939 177.496 58.3143 185.045C65.4729 192.855 79.6458 200.216 89.4221 204.377C90.9446 205.024 104.793 210.124 102.754 212.672C97.3582 219.417 86.6171 219.082 80.3861 224.967C72.8112 232.121 64.8634 237.403 57.7218 244.965C50.5736 252.534 47.2405 262.154 41.7235 270.592C38.1988 275.982 35.4514 282.916 33.7244 288.96C32.3726 293.691 28.3916 300.835 28.3916 305.625C28.3916 315.938 27.8464 326.438 29.6507 336.363C30.9517 343.518 32.6585 350.041 35.3538 356.657C38.5242 364.438 44.2446 371.224 47.7229 378.876C51.6592 387.536 56.1674 396.666 64.3878 401.985C68.6815 404.763 74.7829 407.344 78.3863 410.947C85.8364 418.397 93.7397 421.842 103.05 424.946" stroke="#F6A801" stroke-width="30" stroke-linecap="round"/>
</svg>
