<svg width="124" height="691" viewBox="0 0 124 691" fill="none" xmlns="http://www.w3.org/2000/svg">
<path d="M108.802 15.4932C108.802 19.6336 104.156 22.2022 103.062 26.0293C102.137 29.2681 97.4935 35.6523 95.3566 38.2166C88.5522 46.3819 86.9612 57.0648 83.0121 66.4439C78.4407 77.301 76.0235 89.7546 73.4981 101.119C70.5977 114.17 67.7583 127.235 67.7583 140.668C67.7583 173.626 64.9277 206.966 64.9277 240.211C64.9277 254.982 64.4017 269.096 69.8026 282.984C72.0572 288.782 74.829 296.05 76.1715 302.091C77.1107 306.317 80.8113 309.917 81.8327 313.492C82.8405 317.019 86.0304 320.284 88.6733 322.927C93.0395 327.293 81.8102 330.881 78.7662 333.62C74.3558 337.59 68.2969 340.869 63.5124 344.628C55.4107 350.994 50.7222 362.479 43.6196 370.025C35.275 378.891 32.9667 390.597 28.4445 401.555C24.2518 411.714 22.2385 421.019 19.9527 431.59C14.9484 454.735 15.3923 480.118 15.3923 503.771C15.3923 545.383 26.5028 584.868 43.0693 622.734C48.6309 635.447 56.2076 646.683 66.0285 655.522C73.0005 661.797 79.3715 670.921 87.5725 675.021" stroke="#F6A801" stroke-width="30" stroke-linecap="round"/>
</svg>
