<svg width="119" height="441" viewBox="0 0 119 441" fill="none" xmlns="http://www.w3.org/2000/svg">
<path d="M26.6655 16.0022C35.2009 16.0022 42.3769 15.7164 47.7002 21.6312C51.1816 25.4994 56.8627 27.4183 59.9952 31.3339C62.2919 34.2048 68.9543 38.9616 72.2902 40.2959C79.8373 43.3148 85.0718 55.7439 90.6586 61.3307C96.8874 67.5595 100.962 79.6728 102.583 88.587C103.475 93.4938 102.657 99.2659 102.657 104.289C102.657 110.217 104.592 119.972 101.917 125.324C98.8889 131.379 97.8742 138.149 94.6582 144.581C91.6093 150.679 86.6684 156.583 84.0667 162.653C79.7807 172.654 67.6563 177.842 60.7359 185.391C53.5774 193.201 39.4045 200.563 29.6281 204.723C28.1057 205.371 14.2576 210.47 16.2962 213.018C21.692 219.763 32.4331 219.428 38.6642 225.313C46.239 232.467 54.1868 237.749 61.3284 245.311C68.4766 252.88 71.8097 262.5 77.3267 270.938C80.8514 276.329 83.5989 283.262 85.3259 289.306C86.6776 294.038 90.6586 301.181 90.6586 305.971C90.6586 316.284 91.2039 326.785 89.3995 336.709C88.0985 343.864 86.3918 350.387 83.6964 357.003C80.526 364.785 74.8056 371.57 71.3274 379.223C67.391 387.883 62.8828 397.012 54.6625 402.331C50.3688 405.11 44.2674 407.69 40.664 411.293C33.2138 418.743 25.3105 422.188 15.9999 425.292" stroke="#F6A801" stroke-width="30" stroke-linecap="round"/>
</svg>
