<svg width="243" height="78" viewBox="0 0 243 78" fill="none" xmlns="http://www.w3.org/2000/svg">
<path d="M10.4884 8.92792C13.6144 8.92792 16.3645 9.21231 19.4236 9.72215C23.2647 10.3623 27.5965 9.82143 31.486 9.82143C36.0846 9.82143 40.6908 9.25107 45.2362 8.58044C48.0899 8.15941 50.8433 7.20492 53.7246 7.14089C55.5809 7.09964 57.2593 6.16082 59.0857 5.89989C61.6442 5.5344 64.3044 5.28897 66.8792 5.00638C69.2863 4.74218 71.7205 5.07516 74.1266 4.80782C76.8812 4.50175 79.6405 4.04443 82.4164 4.01358C93.103 3.89484 104.268 3.23341 114.906 4.23696C126.738 5.35321 139.063 4.46034 150.969 4.46034C163.573 4.46034 176.154 4.9071 188.745 4.9071C202.202 4.9071 215.511 6.24737 228.953 6.24737" stroke="#014656" stroke-width="3" stroke-linecap="round"/>
<path d="M10.9351 3.56C11.6045 9.58404 11.3819 15.906 11.3819 22.0756C11.3819 29.2817 13.923 36.5201 14.0624 43.7682C14.1755 49.6504 14.0187 56.3586 15.7502 61.986C16.4204 64.1643 16.743 67.3821 16.743 69.6553C16.743 71.8313 17.6365 73.7101 17.6365 75.9348" stroke="#014656" stroke-width="3" stroke-linecap="round"/>
<path d="M2 73.2611C8.21499 69.2835 15.7876 70.5456 22.7742 69.9104C32.2227 69.0515 42.6117 69.2381 52.0121 70.3572C62.1062 71.5589 72.3342 71.0623 82.466 70.5558C91.0037 70.1289 99.3928 68.7935 107.981 68.7935C114.202 68.7935 120.424 68.7935 126.645 68.7935C140.835 68.7935 155.387 67.8351 169.534 68.8928C176.456 69.4103 183.118 70.5806 190.085 70.5806C194.288 70.5806 198.491 70.5806 202.694 70.5806C214.608 70.5806 250.249 67.9 238.335 67.9" stroke="#014656" stroke-width="3" stroke-linecap="round"/>
<path d="M4.68054 70.5741C12.874 69.7547 20.7182 68.3403 29.0537 68.3403C40.7355 68.3403 52.4174 68.3403 64.0993 68.3403C74.5742 68.3403 85.0168 67.8935 95.4716 67.8935C102.168 67.8935 108.763 67 115.501 67C122.343 67 129.185 67 136.027 67C145.9 67 155.629 67.8935 165.489 67.8935C172.645 67.8935 179.801 67.8935 186.958 67.8935C204.232 67.8935 221.507 67.8935 238.782 67.8935" stroke="#014656" stroke-width="3" stroke-linecap="round"/>
<path d="M220.018 3.12C220.018 7.85963 219.039 13.0299 220.241 17.8382C220.964 20.7282 220.465 24.1824 220.465 27.1456C220.465 31.4232 220.911 35.6856 220.911 39.9279C220.911 45.2253 221.358 50.5126 221.358 55.8374C221.358 60.0229 222.252 64.2961 222.252 68.3466" stroke="#014656" stroke-width="3" stroke-linecap="round"/>
<path d="M220.465 1.78003C220.465 7.90127 222.598 13.8033 222.698 19.9978C222.831 28.2073 225.401 36.1602 226.297 44.222C227.39 54.0574 228.506 63.3372 228.506 73.2613" stroke="#014656" stroke-width="3" stroke-linecap="round"/>
</svg>
